<svg data-name="Layer 1" xmlns="http://www.w3.org/2000/svg" viewBox="0 0 16 16"><path d="M10.72 5.06a2.44 2.44 0 00-1.78-.8 2.49 2.49 0 00-1.8.74 2.92 2.92 0 00-.88 1.84A2.31 2.31 0 007 8.78a2.34 2.34 0 001.67.63 2.79 2.79 0 002-.84 2.31 2.31 0 00.07-3.51m1.6 2.29a3.81 3.81 0 01-1.13 2.56A4.64 4.64 0 018 11.18a3.53 3.53 0 01-2.44-.93 3.24 3.24 0 01-1-2.68A4.71 4.71 0 016 4.72a3.93 3.93 0 012.71-1 3.5 3.5 0 012.46.93 3.83 3.83 0 011.15 2.74m-.14-3.77a4.77 4.77 0 00-3.49-1.41 7.81 7.81 0 00-2 .37 4.71 4.71 0 00-1.79 1.1 6 6 0 00-1.76 3.77 4.52 4.52 0 001.46 3.83A5 5 0 008 12.59a6.62 6.62 0 002.28-.42 5.33 5.33 0 001.88-1.29 5 5 0 001.54-3.5 4.67 4.67 0 00-1.53-3.8M14 9.8a6 6 0 01-1.4 2.2 8.19 8.19 0 01-2.6 1.85 9.13 9.13 0 01-3.08.69A4.51 4.51 0 013.19 13 6.94 6.94 0 011.6 8.57a7.31 7.31 0 01.52-2.72 7.25 7.25 0 011.65-2.41 6.81 6.81 0 015.12-2 5.51 5.51 0 013.84 1.4 6.29 6.29 0 011.62 4.36A7.7 7.7 0 0114 9.8m1.86-2.63a7.64 7.64 0 00-2.1-5.34A7 7 0 008.81 0a8.69 8.69 0 00-3.33.65 8.6 8.6 0 00-2.74 1.78A8.08 8.08 0 00.19 8.58a8.17 8.17 0 002 5.42 6.21 6.21 0 004.77 2 9.88 9.88 0 006.7-2.91 7.1 7.1 0 001.7-2.81 10 10 0 00.5-3.11m-6.21.4a1.52 1.52 0 01-1 .43.85.85 0 01-.65-.23A1.28 1.28 0 018.12 6a1.25 1.25 0 01.79-.3 1.07 1.07 0 01.74.39c.22.2.72.73-.05 1.48" fill="#000000"/></svg>